<svg xmlns="http://www.w3.org/2000/svg" fill-rule="evenodd" clip-rule="evenodd" image-rendering="optimizeQuality" shape-rendering="geometricPrecision" text-rendering="geometricPrecision" viewBox="0 0 9500 2665">
  <defs>
    <style>
      .fil1{fill:#2a4e52}.fil0{fill:#fefefe}
    </style>
  </defs>
  <g id="idepead-logotipo-blue">
    <path d="M7916 1729c4-4 15 6 4 2 0 0-11 5-4-2zm709-466zm24-16c-10 1-1-15 0-4 0 0 3 3 0 4zm-578-179zm4-4l-4 4 4-4zm4-4l-4 4 4-4zm8-4l-8 4 8-4zm4-4l-4 4 4-4zm0 0c6-9 1-5 12-8-6 9-1 5-12 8zm20-12l-8 4 8-4zm0 0l8-5-8 5zm36-28l-8 5 8-5zm0 0zm72-48l1 1s-2-1-1-1zm12-8l1 1s-2-1-1-1zm12-4zm8-4l-8 4 8-4zm0 0c6-9 1-5 12-8-6 9-1 5-12 8zm20-12l-8 4 8-4zm8-4l-8 4 8-4zm8-4l-8 4 8-4zm0 0c8-11 31-22 48-24-5 5-1 2-9 7-5 3-8 4-13 7-11 5-14 8-25 11zm56-28l-8 4 8-4zm8-4l-8 4 8-4zm0 0c8-7 6-7 20-8-8 7-6 7-20 8zm20-8c14-12 19-12 36-12-1 1-2 0-3 1l-33 11zm-625 729c-52 0-11-75-7-91 8-29 1-26 22-66 31-61 96-145 142-197 10-12 14-18 26-30l30-30 89-82c12-10 21-18 32-28 42-37 152-116 201-141 99-49 234-96 344-114 139-23 114-3 196-3-9 17-37 49-51 65l-54 62c-32 34-107 110-145 142l-60 56c-34 34-125 107-160 135-131 104-269 199-419 274-50 25-112 48-187 48zm880-355l-88 203c-11 27-56 136-51 167 2 15 0 3 4 12l2 6c21 56 100 80 117 71s15-31 20-52c22-89 72-127 73-161 1-17-1-3 3-14l295-546c10-16 16-30 24-47 8-15 4-11 16-20 43-30 52-63 79-108 24-40 85-154 107-183 53-69 327-461 263-519-14-13-8 1-14-22-11-38-21-50-62-50-61 0-53 14-93 55-23 24-34 86-71 148-14 23-45 73-53 95-17 52-32 43-54 93l-50 98c-19 32-35 61-56 92l-43 65c-20 31 21 24-42 61-20 12-24 23-41 35-27-6-30-35-133-50-150-21-324 33-458 88-44 18-82 40-122 61-49 27-122 77-167 111-104 79-158 122-246 220-44 49-62 98-97 134-22 22-27-3-66 74-20 40-62 150-49 198 11 41-5 20 43 73 18 19 80 67 106 81 63 35 151 51 226 13 9-4 24-15 31-17 22-8 27 7 29-19-44 0-23 19-80 20l98-45c169-85 293-174 439-290l160-131zm-5904 85l4-4 4-8 4-4 4-4 4-4c13-20 24-28 39-45 14-16 24-31 41-43l4-4 4-9c12-11 20-27 30-40s24-25 35-37c16-18 63-59 70-73 8-33 111-165 140-183 39-24 46-58 51-108 8-69-84-102-132-40-7 9-10 14-16 23-63 87-130 167-197 249l-113 130c-13 15-27 25-39 40l-78 85c-32 36-92 93-119 128-48 63-135 146-177 225-16 31-13 27-1 61 8 24 13 36 25 55l33 51c35-19 53-67 89-114 42-53 44-53 88-96l11-12c36-38 171-205 194-220z" class="fil0"/>
    <path d="M7020 1741l19-13c18-10 54-29 73-31-15 13-49 32-67 37-27 7 0 5-25 7zm-597-139c-16 11-46 16-64 16v-8c26-6 29-8 64-8zm550-12l1 1s-2-1-1-1zm12-4zm554-151c-10 1-1-15 0-4 0 0 3 3 0 4zm24-48l-4 16c-4-6-5 8-2-7 2-7-3-2 6-8zm4-4l-4 4 4-4zm0 0zm-844-215zm56-12v-12h16c-9 13-3 4-16 12zm207 430c7-17-7-12-28-12l12 24c-12 3-18 7-28 12-16-31-18-15-24-36 16-9 36-11 55-16 16-5 40-12 56-15-2-25-16-23-35-16-34 12-18 4-52 4 49-94 87-148 155-232 44-54 142-153 191-200 67-64 144-118 221-169 56-37 185-122 262-128v8c-20 0-24 4-36 12 3 13 7 6 12 20l-90 121c-17 22-33 33-51 53-10 11-13 17-24 28l-181 193c-16 14-43 36-49 59 9 12-3 6 16 8-7 13-9 13-16 24-36-3-24-7-52 15l-106 93c-36 45 5 9-61 59-33 25-112 84-147 92zm24-793c1 23 10 21-10 33-22 13-22 12-39 29-8 8 1 1-8 8-5 4-12 7-17 10-13 8-21 13-35 21-51 28-86 51-143 80-80 40-242 120-324 122 1-15 4-13 4-32-35 3-51 41-80 44 5-15 57-52 71-61 153-91 405-238 578-274l56-12c-5 14-38 29-52 32zm-586 809l11-5c6-7 5 13 5-15-15-7-71-12-87-3-10 5-2 10-28 7-23-3-29-6-55-3-60 8-293 48-250-46 8-17 13-30 20-48 46-116 39-90 144-194 18-18 51-55 69-67 46 11 72 44 159 44 60 0 129-15 178-29 58-17 170-58 225-82 22-10 53-20 60-44-27 1-20 10-44 12 9-14 20-16 36-24 10-5 30-15 44-16-8 12-8 5-12 20 19 0 44-7 57-14 12-7 10-11 18-18 25-21 258-91 327-298 18-55 2-54-31-93-24-29-52-46-89-58-39-13-73-28-119-20-83 15-159 33-231 60-17 6-34 13-52 20-50 20-36 16-38 32-3 18-26 19-42 27s-34 16-50 26l-323 191c-9 5-14 10-22 14-10 6-16 7-20 20 22 15 16 4 48 4-9 12-26 17-40 24-23-16-16-20-52-12 5 19 6 4 8 24-17 11-33 26-60 28 0 16 1 12 4 24 0 1 2 9 2 9 0 11-4 15-13 19-45 19-42 7-94 54l-66 62c-13 14-9 13-5 31-28 2-72 28-84 47-11 18-7 19-25 43-36 46-50 86-50 153 0 49 20 65 43 93 31 37 51 99 130 141 26 14 84 34 119 18 55-25 82-2 59-37 12 0 22-3 34-6 42-10 23-9 65-6 26 2 53-4 76-8 15-3 19-6 31-9 13-3 11 2 31 0 63-7 277-54 316-55 9 34 111 105 166 117 24 6 33 6 61 6 37 0 31-2 59-12l25-11c24-6 60-12 63-44-21 0-6 0-12-4 21-6 162-123 180-142 11-12 10-16 31-17-1 22 1 12-17 23-13 8-11 8-19 21 43 21 41-24 6 109-15 57 23 82 78 82 10-43 37-88 55-129 5-12 9-18 14-30 7-17 5-18 18-30 39-39 60-92 89-138 7-10 13-19 19-29 16-26 39-56 51-85 7-16 1-18-7-30 35-3 37-33 53-59 14-23 30-50 51-64-6-27-11-21 6-46 9-14 21-15 50-22-2-20-3-5-8-24 23-6 51-46 72-60-5-9-9-14-12-24 24-2 36-28 47-45s22-15 37-34c16-20 44-40 60-60 12-15 37-34 37-54 0-69 0-68-48-83-49-16-35-29-117-27-15 0-31 7-43 4-23-6 5 0-15-9-7-3-11-3-21-2-117 12-318 149-435 227-36 24-70 55-97 90-24 31-91 84-123 116-57 57-58 39-119 116-29 36-56 71-83 108-47 62-96 129-130 201-9 18-5 16-28 20l-290 41c-17 2-24-2-42-2zM3280 239c0 40 1 61 18 93l2 9c0 1-2 7-2 8-2 11-3 10 1 21s14 23 20 32c36-10 40-49 96-36 12-18 16-27 23-48 22-62 28-46-7-104-13-22-21-74-102-21-12 8-50 32-50 45z" class="fil0"/>
    <path d="M6554 980v20c34 0 64-20 86-33s61-43 73-47v-12c-21 0-27 6-41 15-24 14-98 55-118 57zm-95 614h39v-20h-39z" class="fil0"/>
    <path id="ead_text" d="M8072 1924c0 12 5 11 16 12v127c-11 5-20 2-20 16 0 18 19 12 60 12 14 0 25-25-8-28v-96l19 29c7 12 12 20 20 32l37 63h36v-155c20-5 16-4 16-28h-68v28h16v92l-55-88c-7-11-13-17-17-31h-52v16zm-2207 140h-24v-127c70 0 76 18 76 72 0 33-18 56-52 56zm-72-127h12v131h-16v24c79 0 163 17 163-100 0-97-91-84-159-84v28zm1614 127h-28v-127c44 0 76 9 76 60 0 34-14 68-48 68zm-80-139c0 12 5 11 16 12v108c0 20 3 22-16 23v24c78 0 159 15 163-96 2-56-36-87-95-87h-68v16zm-1358-5c0 16 1 15 16 16 0 35-5 76 2 109 9 43 30 50 74 50 84 0 64-93 64-159 20-5 16-4 16-28h-68c0 27-2 26 16 28 0 121 14 127-48 127-32 0-20-94-20-127 20-5 16-4 16-28-45 0-68-6-68 12zm1195 24c2 3 1 2 4 8 3 8 1 2 3 9 3 9 3 11 5 19 4 12 8 23 11 36h-48l25-71zm-29-8c-5 23-16 50-23 72-4 13-8 25-12 36-5 16-6 22-25 23v24c43 0 76 7 67-18-6-17-9-1-15-18 4-5 3 4 4-12h64c2 9 4 12 4 24h-16v24h72c0-52-9-3-25-51l-40-115c-8-22 3-17-71-17 0 23-4 23 16 28zm833 8c2 26 18 46 20 72h-44c1-14 6-24 10-37l13-34zm-32-8c-1 17-18 61-23 76-9 25-12 43-23 53-8 7-14 0-14 14 0 18 22 12 68 12 0-44-6-12-16-36 4-5 3 4 4-12h64c3 7 5 13 8 20-11 5-4 4-20 4v24h72c0-51-6-2-24-52l-33-91c-16-46-2-40-67-40-10 0-14 4-12 15 2 12 3 10 16 13zm-1195 8c2 26 18 46 20 72h-44c1-14 6-24 10-37l13-34zm-32-8c-1 17-18 61-23 76-9 25-12 43-23 53-8 7-14 0-14 14 0 18 22 12 68 12 0-44-6-12-16-36 4-5 3 4 4-12h64c3 7 5 13 8 20-11 5-4 4-20 4v24h72c0-51-6-2-24-52l-33-91c-16-46-2-40-67-40-10 0-14 4-12 15 2 12 3 10 16 13zm-322 12h8c1 14 15 57 20 68h-48c4-9 19-57 20-68zm-24-12l-36 107c-5 16-3 23-24 24v24h64c0-53-18-6-8-48h64c2 9 4 12 4 24h-16v24h72c0-50-11-6-26-50l-46-133h-64c0 23-4 23 16 28zm2227 12h8c1 14 15 57 20 68h-48c4-9 19-57 20-68zm-24-12c-6 24-16 47-24 71-15 45-12 58-35 60v24h64c0-53-18-6-8-48h64c2 9 4 12 4 24h-16v24h72c0-50-11-6-26-50l-46-133h-64c0 23-4 23 16 28zm-1685 68c0-96 88-82 88-16v28c0 68-88 72-88-12zm-36-8c0 145 159 116 159 20v-32c0-104-159-108-159 12zm-1199-72c0 12 5 11 16 12v108c0 20 3 22-16 23v24h120c16 0 12-11 12-40 0-15-9-12-32-12v20h-48v-48h64v-28h-64v-44h44v16h32v-48h-127v16zm852 64c0 97 30 90 68 108-2 10-4 16-8 24 11 5 8 4 24 4-2 21-7 18-32 12-1 16-10 20 32 20 6 0 13-5 16-8 10-9 18-32-16-40v-12c65 0 56-12 56-60-36 0-17 2-28-4 0 37-1 36-32 36-59 0-59-131-4-131 36 0 32-4 32 32 16 0 16-1 28-4v-48c-31-7-60-18-92-1-23 12-43 39-43 73zm1187 52c0 11-2 11-4 20-27 6-20 4-52 4 0-28 1-27-13-26-22 2-19 7-19 38 0 21 123 49 123-44 0-55-84-34-84-80 0-21 25-16 48-16v24c36 0 32 4 32-32 0-24-100-42-116 20-19 71 84 57 84 92zm-1449 55c66 0 56-17 56-60h-32c0 35 3 32-28 32-61 0-59-131-4-131 36 0 32-4 32 32 16 0 16-1 28-4v-48c-45-10-117-26-134 57-13 62 10 122 83 122zm2115 0c66 0 56-17 56-60h-32c0 35 3 32-28 32-61 0-59-131-4-131 36 0 32-4 32 32 16 0 16-1 28-4v-48c-45-10-117-26-134 57-13 62 10 122 83 122zm-614-139c23 2 31 15 32-16h24v116c0 14-8 12-24 12v24c85 0 80 6 80-24-9-2-12-4-24-4v-123h24v20c19 0 17-3 32-4v-48h-143v48zm693-20h12v131h-16v24h68c0-23 4-23-16-28v-127c33-3 22-28 8-28h-56v28zm-920-12c0 12 5 11 16 12v108c0 20 3 22-16 23v24c73 0 68 6 68-24-22-2-16-7-16-56v-76c20-5 16-4 16-28h-68v16zm414-24c13-4 25-17 36-24 6 6 12 11 20 16 13 9 11 8 24-1-6-10-13-14-20-24-22-29-27-25-53 3-2 2-9 11-10 13-6 14-6-1 4 15zm-1234-12l72 4c8 0 17-18 20-24-24-13-15-3-29-1-15 2-59-25-63 21z" class="fil1"/>
    <g id="dep_text">
      <path d="M4499 980v20c41 0 153-67 159-92-23 0-26 6-41 15-15 8-24 14-38 21-18 9-60 34-80 36z" class="fil1"/>
      <path d="M3001 1729c4-4 15 6 4 2 0 0-11 5-4-2zm1884-20l-24 12c-10 4-20 7-32 8 15-13 36-19 56-20zm0 0l8-5-8 5zm16-36c4-4 15 6 4 2 0 0-11 5-4-2zm120-12c-5 4 8 4-12 4 5-4-4-3 12-4zm0 0l8-5-8 5zm-418-4zm502-32v12h-8c3-11-2-6 8-12zm-175 32c11-9 20-12 35-16 13-4 30-8 44-11-3 8 7 9-33 18-16 4-30 9-46 9zm-562-56c-16 11-46 16-64 16v-8c26-6 29-8 64-8zm0 0l8-5-8 5zm844-20v16h-16c4-17 2-8 16-16zm-56-8c-16 22-83 38-112 52 4 18 8 13 12 28-24-3 2 6-24-20-2-2-3-1-8-8 14-19 99-51 131-52zm0 0l8-5-8 5zm72 8c10-13 29-16 48-20-5 17-1 9-18 14-12 4-16 6-30 6zm76-40h12v8h-12v-8zm36-4c8-12 3-8 24-8-6 9-1 5-12 8-13 4-6 2-12 0zm-92-8c9-2 9-3 20-4l-20 4zm56-16h8v12h-8v-12zm88-32c2-20 5-19 20-12-4 12-3 10-20 12zm-1589-28l1 1s-2-1-1-1zm1765-24c9-17 9-20 36-20v8c-25 6-14 10-36 12zm-1856-167zm24-16c-4 2-17 0-2-6 11-4 6 4 2 6zm932-76zm0 0c5-4-8-4 12-4-5 4 4 3-12 4zm57-15l-1-13h12l-11 13zm-1578-85l1 1s-2-1-1-1zm16-8zm4-4l-4 4 4-4zm4-4l-4 4 4-4zm8-4l-8 4 8-4zm4-4l-4 4 4-4zm8-4l-8 4 8-4zm0 0zm8-8l1 1s-2-1-1-1zm28-20zm0 0c6-9 1-5 12-8-6 9-1 5-12 8zm84-56l1 1s-2-1-1-1zm12-4zm8-4l-8 4 8-4zm4-4l-4 4 4-4zm8-4l-8 4 8-4zm8-4l-8 4 8-4zm8-4l-8 4 8-4zm1792-8c-6 24-94 156-108 175l-92 120c-10 13-22 27-36 36 2 10 4 12 8 20-26 17-40 44-73 67-43 30-4-8-52 44-8 9-15 15-24 24-13 13-33 40-51 45 4 18 8 13 12 28-8 12-47 44-60 48 11 45-25 37-128 52-55 8-113 21-167 16v-24c-10 0-22 1-32 0-18-1-15-4-32-4-40-1-7 21-54 11-70-16-232 43-295-4-18-13-11-26-3-44 11-26 47-124 62-141 32-34 64-73 100-103l71-65c26 6 78 44 159 44 60 0 129-16 178-30l225-82c20-9 54-21 60-44-27 1-20 10-44 12 8-12 20-18 35-25 11-4 31-14 45-15l-17 19c21 1 35-3 51-9 28-11 18-16 34-26l84-40c110-55 107-79 143-104zm4-4l-4 4 4-4zm-1796 12c8-10 22-17 36-20-8 10-22 17-36 20zm44-24l-8 4 8-4zm1753 12l20-20c-3 13-7 16-20 20zm-1753-12c4-3-1 0 7-5 3-2 2-2 8-4 9-4 10-5 22-6-4 3 1 0-7 5-3 2-2 2-8 4-9 4-10 5-22 6zm44-20l-8 4 8-4zm0 0c8-7 6-7 20-8-8 7-6 7-20 8zm1581 677c-17-13 1-7-17-12-10-2-23 1-28 3-18 7-23 18-27 37-17-9-18-15-20 4h-12c2-21 5-5 6-21l-2-11c-2-19 18-21 48-28-2-18-5-20-24-20l124-174c39-41 27-56 58-93 13-15 17-9 30-22 17-16 32-33 49-50 18-18 35-29 54-46a1888.4 1888.4 0 0 1 175-128c90-56 163-103 268-139 26-9 48-16 77-23 73-18 72-23 134-11 18 3 29 9 47 9 0 44-4 58-20 99-11 26-22 43-37 67-20 34-64 84-93 114l-81 74c-54 44-91 60-153 106-13 10-16 15-28 24-25 20-7 0-70 25-12 5-24 9-37 15-91 39-81 47-100 55-14 6-23 9-37 15-63 28-78 31-143 64l-131 60c-10 5-4 1-10 6zM3467 882c2-2-2-4 10-6 18-4 11 1 14 2l-24 4zm-637 733c-46 0-11-71-7-83 3-10 2-12 5-23 12-66 88-158 129-206 24-28 49-64 76-91l58-54c37-38 214-174 250-192 61-32 131-62 196-83 81-27 188-56 278-56 33 0 62 8 96 8l-132 154-30 30c-18 18-39 42-58 57-24 19-36 37-60 55l-90 81c-8 7-8 7-16 12-7 6-10 9-17 15l-66 53c-84 64-149 112-236 170-103 69-242 152-374 152zm2123-821c4 15 4 5 8 20-51 27-41 33-94 65-13 8-22 13-35 21-58 34-148 83-211 112-58 27-184 80-242 81l5-32c-18 1-45 21-59 33-11 9-5 9-21 11 3-13 9-14 32-32l39-29c84-54 164-97 252-143 65-34 108-56 179-84 29-12 66-26 97-34l107-25c-4 12-10 11-25 19-11 7-20 11-31 17zm-1984 275c-7 14-55 55-70 73-11 13-24 24-35 37-10 13-18 29-30 40 0 15 1 6-4 9l-4 4c-3 12-8 16-15 25s-11 17-18 26c-12 14-27 32-47 37l-4 4-4 4-4 4-4 8-4 4c-5 21-53 83-64 179-3 23-7 30-1 52 8 28 1 24 18 46 48 59 150 135 226 141 44 3 79-2 111-12 21-7 23-9 40-20 14-9 6-4 24-8 15-3 14 1 16-16-18 0-19-2-30 6-1 0-1 1-2 2-12 8-30 12-47 13 10-9 36-17 49-23 199-89 400-237 567-377 14-11 25-22 39-33 15-12 27-23 42-34l-85 190c-14 32-47 119-54 154-6 32-5 30 8 54 15 29 46 46 80 60 70 28 25-43 105-164l19-29c10-17-2-10 15-56l4-8c0 45-14 76 35 128 31 34 70 135 180 166 86 25 73-14 143-16-1-17 1-7-8-20 16 0 39-6 53-11 26-8 49 5 115-8 25-5 33-11 52-10 26 1 132-20 171-26 22-4 35-9 59-9-5 18-40 60-51 68-39 30-19 34-44 75-8 14-16 16-27 33l-74 105c-36 44-23 17-49 70-28 56-43 48-59 88-6 16-47 64-61 91-10 20-11 25-1 43-48 32-129 162-155 215l-42 97c-4 23 43 64 57 79 11 11 40 39 53 43 18-12 249-324 275-358l123-172c55-83 129-205 186-280 28-37 39-75 78-94 29-14 23-5 45-1 35 7 147-44 178-55 244-88 463-164 685-303 65-41 74-45 135-96 35-29 175-167 195-216 22-52 44-120 49-186-7-10-10-10-15-21-4-7-6-18-9-27-40-122-45-85-70-114-17-21-39-37-66-46-69-24-96-5-190 9-47 7-79 12-123 24-41 12-67 26-103 45-40 20-84 67-129 90-38 20-22 5-57 3-1-35-27-53-56-52-17 0-16 2-25 11-18 17-51 60-62 81-11-1-11-2-20-4 5-19 52-50 77-146 8-29-10-48-35-72-50-49-71-57-150-77-68-17-210 28-274 50-28 10-53 20-80 32-40 18-26 14-27 24-2 11 5 7-8 16-6 4-12 5-20 8-94 38-119 75-141 86l-250 140c-13 9-24 15-37 23 4 15 4 5 8 20 13-6 20-8 40-8-18 15-20 13-40 24-22-14-20-19-52-12 1 12 17 20-8 36-10 6-29 15-44 16 0 19 4 29 8 44-22 15-63 12-133 83-13 13-47 39-49 57-3 21 21 1-42 31-13 6-6 5-19 9l221-401c17-15 31-15 51-52l113-198 166-248c44-67 128-213 134-281 2-29 0-25-13-39-28-30 7-70-87-69-33 0-50 20-76 52-5 6-9 10-13 15-7 10-11 25-15 37-33 84-50 103-89 169-12 20-6 33-33 70-37 50-60 114-92 167l-90 141c-10 18-3 0-1 16 2 24-25 30-50 48-17 12-14 17-26 26-12 3-20-16-60-31-22-8-46-15-73-19-95-15-230 11-319 36-180 51-384 178-527 302-10 9-15 12-26 22-8 7-19 16-27 21z" class="fil1"/>
      <path d="M4399 1582v8c11 6 14 4 32 4 13 0 12-7 12-20-17 0-44-4-44 8z" class="fil1"/>
    </g>
    <path d="M998 1242c15 69 131 54 116-27-6-29-36-52-71-45-28 6-52 37-44 71z" class="fil0"/>
    <path d="M1174 557c-57 19-29 103 29 84 53-17 27-103-29-84zM855 728c89-19 233 27 296 64 69 41 135 109 162 204 32 112 0 213-51 290-43 65-144 126-255 81-71-29-76-69-111-74-90-14-104-36-152-76-27-23-89-3-117-14s-73-64-89-93c-42-79 3-210 66-267 60-55 146-93 251-114zm-445 591l-17 57h34l-16 52c9 11 15 16 24 25 10 10 18 11 17 28 0 18-19 52-23 71-24 111 210 58 294 68 64 8 40 77 60 129 147 4 278 16 420-18 77-18 99-27 61-131-18-48-59-118-43-179 5-21 37-46 51-60 42-43 109-159 119-221 17-110-19-222-86-305-72-90-224-151-345-161-231-19-530 95-518 379 3 65 16 38-19 86l-73 93c-12 15-16 17-4 36 11 17 41 41 65 51z" class="fil0"/>
    <path d="M849 851c63-21 82 69 29 85-60 17-79-68-29-85zM565 995c33 3 68 12 101 3 28-8 49-26 84-21 26 3 52 27 71 38 47 26 161-2 198 15 26 12 33 30 69 35 70 11 133-10 201-10-9-94-64-163-113-201-248-197-611-31-610 142z" class="fil0"/>
    <path d="M410 1319c-23-10-54-34-65-51-12-19-7-21 4-36l73-93c34-47 21-21 19-86-12-284 287-398 518-379 121 10 273 71 345 161 67 84 104 196 86 305-10 62-76 177-119 221-14 14-46 40-51 60-16 61 26 131 43 179 38 103 15 113-61 131-141 33-273 22-420 18-19-53 4-121-60-129-84-11-318 42-294-68 4-19 23-53 23-71s-8-19-17-28-16-15-24-25l16-52h-34l17-57zm764-762c56-19 82 67 29 84-58 19-86-65-29-84zM0 1169c0 124-3 150 29 276 14 58 37 112 60 160 34 68 80 140 131 198 9 10 18 17 27 27l21 22c90 81 146 130 269 183 80 34 217 73 310 72 20 0 41 4 53 3 29-2 70-4 101-7s62-10 92-16c114-24 213-72 306-134 37-25 29-19 89-19 63 0 141 11 166-54 11-29 8-64 8-104l5-103c3-13 12-25 18-36 53-91 105-262 105-393 0-153-22-284-82-404-43-86-64-122-126-199-58-72-158-155-238-199-26-14-47-25-74-39-23-12-53-23-77-32-27-10-54-17-84-24-227-57-457-21-655 88-160 88-285 227-367 390-40 80-88 227-88 345z" class="fil1"/>
    <path d="M998 1242c-7-34 16-66 44-71 36-7 66 16 71 45 16 80-101 95-116 27zM566 994c0-174 363-339 610-142 48 39 103 107 113 201-68 0-131 22-201 10-36-6-43-24-69-35-37-17-151 11-198-15-19-11-46-35-71-38-35-5-56 13-84 21-32 9-68 0-101-3zm290-266c-104 22-190 60-251 114-63 57-108 188-66 267 15 29 61 82 89 93s91-9 117 14c47 41 61 63 152 76 36 5 40 45 111 74 111 44 211-16 255-81 51-77 84-178 51-290-27-95-94-163-162-204-63-37-207-83-296-64z" class="fil1"/>
    <path d="M849 851c-50 17-31 102 29 85 53-15 34-106-29-85z" class="fil1"/>
  </g>
</svg>
